<?xml version="1.0" standalone="no"?>
<!DOCTYPE svg PUBLIC "-//W3C//DTD SVG 1.1//EN"
 "http://www.w3.org/Graphics/SVG/1.1/DTD/svg11.dtd">
<!-- Created with svg_stack (http://github.com/astraw/svg_stack) -->
<svg xmlns:sodipodi="http://sodipodi.sourceforge.net/DTD/sodipodi-0.dtd" xmlns="http://www.w3.org/2000/svg" version="1.1" width="32.0" height="32.0">
  <defs/>
  <g id="id0:id0" transform="matrix(1.25,0,0,1.25,0.0,0.0)"><g transform="translate(0.000000,25.600000) scale(0.040000,-0.040000)" fill="#fefefe" stroke="none">
<path d="M0 320 l0 -320 320 0 320 0 0 320 0 320 -320 0 -320 0 0 -320z m395 294 c17 -4 42 -15 57 -25 14 -11 30 -19 35 -19 11 0 83 -75 83 -87 0 -5 9 -18 21 -29 13 -11 19 -27 16 -41 -2 -12 1 -24 7 -26 24 -8 14 -133 -17 -192 -6 -11 -12 -32 -13 -48 -7 -56 -35 -84 -91 -91 -16 -1 -37 -7 -48 -13 -60 -31 -164 -42 -187 -20 -7 8 -19 12 -25 10 -7 -3 -26 5 -42 16 -16 12 -33 21 -37 21 -11 0 -84 72 -84 83 0 5 -8 21 -19 35 -10 15 -21 41 -25 57 -11 45 -9 126 2 137 6 6 8 16 5 24 -3 7 5 27 16 43 12 16 21 33 21 37 0 11 72 84 83 84 5 0 22 9 38 21 16 11 35 19 41 17 7 -3 22 0 33 6 22 12 80 12 130 0z"/>
<path d="M130 499 c0 -5 5 -7 10 -4 6 3 10 8 10 11 0 2 -4 4 -10 4 -5 0 -10 -5 -10 -11z"/>
<path d="M50 390 c0 -5 5 -10 10 -10 6 0 10 5 10 10 0 6 -4 10 -10 10 -5 0 -10 -4 -10 -10z"/>
<path d="M570 390 c0 -5 5 -10 11 -10 5 0 7 5 4 10 -3 6 -8 10 -11 10 -2 0 -4 -4 -4 -10z"/>
<path d="M281 344 c0 -11 3 -14 6 -6 3 7 2 16 -1 19 -3 4 -6 -2 -5 -13z"/>
<path d="M280 271 c0 -6 5 -13 10 -16 6 -3 10 1 10 9 0 9 -4 16 -10 16 -5 0 -10 -4 -10 -9z"/>
<path d="M345 270 c-3 -5 -1 -10 4 -10 6 0 11 5 11 10 0 6 -2 10 -4 10 -3 0 -8 -4 -11 -10z"/>
<path d="M290 140 c0 -5 5 -10 11 -10 5 0 7 5 4 10 -3 6 -8 10 -11 10 -2 0 -4 -4 -4 -10z"/>
<path d="M245 60 c3 -5 8 -10 11 -10 2 0 4 5 4 10 0 6 -5 10 -11 10 -5 0 -7 -4 -4 -10z"/>
</g>
</g>
  <g id="id1:id1" transform="matrix(1.25,0,0,1.25,0.0,0.0)"><g transform="translate(0.000000,25.600000) scale(0.040000,-0.040000)" fill="#e7f3ec" stroke="none">
<path d="M255 610 c-4 -6 -11 -8 -16 -5 -5 3 -6 -1 -3 -9 3 -8 13 -17 21 -20 12 -5 13 -3 5 7 -9 10 -8 17 0 25 7 7 9 12 6 12 -4 0 -10 -5 -13 -10z"/>
<path d="M105 528 l-40 -43 43 40 c39 36 47 45 39 45 -2 0 -21 -19 -42 -42z"/>
<path d="M174 538 c-19 -23 -19 -23 2 -5 11 9 24 14 27 10 4 -3 7 -1 7 5 0 19 -15 14 -36 -10z"/>
<path d="M430 548 c0 -6 3 -8 7 -5 3 4 16 -1 27 -10 21 -18 21 -18 2 5 -21 24 -36 29 -36 10z"/>
<path d="M492 509 c2 -7 10 -15 17 -17 8 -3 12 1 9 9 -2 7 -10 15 -17 17 -8 3 -12 -1 -9 -9z"/>
<path d="M535 457 c10 -15 20 -25 23 -22 3 3 -5 16 -17 28 l-23 22 17 -28z"/>
<path d="M92 458 c-15 -15 -15 -28 0 -28 6 0 8 3 5 7 -4 3 -2 12 4 20 14 16 7 17 -9 1z"/>
<path d="M585 450 c10 -11 20 -20 23 -20 3 0 -3 9 -13 20 -10 11 -20 20 -23 20 -3 0 3 -9 13 -20z"/>
<path d="M185 410 c3 -5 8 -10 11 -10 2 0 4 5 4 10 0 6 -5 10 -11 10 -5 0 -7 -4 -4 -10z"/>
<path d="M34 403 c3 -6 2 -14 -4 -18 -5 -3 -10 -11 -10 -16 0 -6 7 -3 16 6 14 13 14 19 4 28 -10 9 -11 9 -6 0z"/>
<path d="M585 390 c3 -5 14 -10 23 -10 15 0 15 2 2 10 -20 13 -33 13 -25 0z"/>
<path d="M286 381 c-4 -7 -5 -15 -2 -18 9 -9 19 4 14 18 -4 11 -6 11 -12 0z"/>
<path d="M622 350 c0 -14 2 -19 5 -12 2 6 2 18 0 25 -3 6 -5 1 -5 -13z"/>
<path d="M287 330 c-15 -34 -12 -194 3 -185 14 9 12 99 -2 113 -10 10 -10 14 0 21 8 5 12 20 10 37 -3 20 -6 24 -11 14z"/>
<path d="M469 293 c-13 -16 -12 -17 4 -4 16 13 21 21 13 21 -2 0 -10 -8 -17 -17z"/>
<path d="M622 290 c0 -14 2 -19 5 -12 2 6 2 18 0 25 -3 6 -5 1 -5 -13z"/>
<path d="M341 276 c-7 -8 -8 -16 -4 -19 13 -8 63 4 63 15 0 6 -6 8 -14 5 -7 -3 -18 -1 -23 4 -6 6 -14 5 -22 -5z m19 -6 c0 -5 -5 -10 -11 -10 -5 0 -7 5 -4 10 3 6 8 10 11 10 2 0 4 -4 4 -10z"/>
<path d="M240 270 c0 -5 5 -10 10 -10 6 0 10 5 10 10 0 6 -4 10 -10 10 -5 0 -10 -4 -10 -10z"/>
<path d="M576 243 c-6 -14 -5 -15 5 -6 7 7 10 15 7 18 -3 3 -9 -2 -12 -12z"/>
<path d="M32 230 c0 -14 2 -19 5 -12 2 6 2 18 0 25 -3 6 -5 1 -5 -13z"/>
<path d="M80 196 c0 -2 7 -9 15 -16 13 -11 14 -10 9 4 -5 14 -24 23 -24 12z"/>
<path d="M70 147 c0 -2 15 -16 33 -33 l32 -29 -29 33 c-28 30 -36 37 -36 29z"/>
<path d="M300 130 c-11 -7 -6 -10 20 -10 26 0 31 3 20 10 -8 5 -17 10 -20 10 -3 0 -12 -5 -20 -10z"/>
<path d="M485 110 c3 -5 8 -10 11 -10 2 0 4 5 4 10 0 6 -5 10 -11 10 -5 0 -7 -4 -4 -10z"/>
<path d="M180 89 c0 -5 5 -7 10 -4 6 3 10 8 10 11 0 2 -4 4 -10 4 -5 0 -10 -5 -10 -11z"/>
<path d="M549 83 c-13 -16 -12 -17 4 -4 9 7 17 15 17 17 0 8 -8 3 -21 -13z"/>
<path d="M247 39 c4 -13 8 -18 11 -10 2 7 -1 18 -6 23 -8 8 -9 4 -5 -13z"/>
<path d="M430 40 c-9 -6 -10 -10 -3 -10 6 0 15 5 18 10 8 12 4 12 -15 0z"/>
<path d="M283 13 c9 -2 23 -2 30 0 6 3 -1 5 -18 5 -16 0 -22 -2 -12 -5z"/>
<path d="M338 13 c6 -2 18 -2 25 0 6 3 1 5 -13 5 -14 0 -19 -2 -12 -5z"/>
</g>
</g>
  <g id="id2:id2" transform="matrix(1.25,0,0,1.25,0.0,0.0)"><g transform="translate(0.000000,25.600000) scale(0.040000,-0.040000)" fill="#d3e8de" stroke="none">
<path d="M306 612 c6 -4 13 -14 16 -22 3 -11 6 -9 10 6 4 15 0 20 -16 22 -11 0 -16 -2 -10 -6z"/>
<path d="M383 595 c0 -8 4 -12 9 -9 5 3 6 10 3 15 -9 13 -12 11 -12 -6z"/>
<path d="M385 570 c-19 -8 -19 -9 3 -9 12 -1 22 4 22 9 0 6 -1 10 -2 9 -2 0 -12 -4 -23 -9z"/>
<path d="M243 563 c9 -2 23 -2 30 0 6 3 -1 5 -18 5 -16 0 -22 -2 -12 -5z"/>
<path d="M478 563 c7 -3 16 -2 19 1 4 3 -2 6 -13 5 -11 0 -14 -3 -6 -6z"/>
<path d="M115 479 c-4 -6 -5 -12 -2 -15 2 -3 7 2 10 11 7 17 1 20 -8 4z"/>
<path d="M268 463 c28 -2 76 -2 105 0 28 2 5 3 -53 3 -58 0 -81 -1 -52 -3z"/>
<path d="M437 459 c7 -7 15 -10 18 -7 3 3 -2 9 -12 12 -14 6 -15 5 -6 -5z"/>
<path d="M180 442 c0 -12 4 -22 9 -22 10 0 9 26 -2 36 -4 4 -7 -2 -7 -14z"/>
<path d="M436 412 c-3 -5 1 -9 9 -9 8 0 15 4 15 9 0 4 -4 8 -9 8 -6 0 -12 -4 -15 -8z"/>
<path d="M560 399 c0 -5 5 -7 10 -4 6 3 10 8 10 11 0 2 -4 4 -10 4 -5 0 -10 -5 -10 -11z"/>
<path d="M71 384 c0 -11 3 -14 6 -6 3 7 2 16 -1 19 -3 4 -6 -2 -5 -13z"/>
<path d="M340 382 c0 -5 10 -17 22 -28 l21 -19 -18 28 c-18 28 -25 33 -25 19z"/>
<path d="M24 320 c0 -11 6 -15 18 -12 23 6 23 18 0 24 -12 3 -18 -1 -18 -12z"/>
<path d="M170 330 c0 -5 5 -10 11 -10 5 0 7 5 4 10 -3 6 -8 10 -11 10 -2 0 -4 -4 -4 -10z"/>
<path d="M446 328 c3 -4 9 -8 15 -8 5 0 9 4 9 8 0 5 -7 9 -15 9 -8 0 -12 -4 -9 -9z"/>
<path d="M345 311 c7 -22 -18 -46 -37 -35 -10 5 -10 4 -1 -6 10 -11 16 -10 33 5 21 19 27 55 9 55 -6 0 -8 -8 -4 -19z"/>
<path d="M580 322 c0 -4 9 -8 20 -9 11 -1 20 2 20 5 0 4 -9 8 -20 9 -11 1 -20 -2 -20 -5z"/>
<path d="M210 276 c0 -2 7 -6 15 -10 8 -3 15 -1 15 4 0 6 -7 10 -15 10 -8 0 -15 -2 -15 -4z"/>
<path d="M400 270 c0 -5 7 -7 15 -4 8 4 15 8 15 10 0 2 -7 4 -15 4 -8 0 -15 -4 -15 -10z"/>
<path d="M67 250 c-3 -11 -1 -20 4 -20 5 0 9 9 9 20 0 11 -2 20 -4 20 -2 0 -6 -9 -9 -20z"/>
<path d="M602 258 c-6 -8 -6 -21 -1 -33 l9 -20 -2 20 c-2 11 1 26 5 33 5 6 6 12 4 12 -3 0 -9 -6 -15 -12z"/>
<path d="M36 248 c3 -5 10 -6 15 -3 13 9 11 12 -6 12 -8 0 -12 -4 -9 -9z"/>
<path d="M340 213 c0 -21 5 -45 10 -53 7 -11 10 0 10 38 0 28 -4 52 -10 52 -5 0 -10 -17 -10 -37z"/>
<path d="M230 69 c0 -5 5 -7 10 -4 6 3 10 8 10 11 0 2 -4 4 -10 4 -5 0 -10 -5 -10 -11z"/>
<path d="M395 70 c3 -5 8 -10 11 -10 2 0 4 5 4 10 0 6 -5 10 -11 10 -5 0 -7 -4 -4 -10z"/>
<path d="M313 40 c1 -11 5 -20 10 -20 5 0 7 6 4 14 -3 8 -1 17 6 20 7 2 5 5 -5 5 -11 1 -16 -6 -15 -19z"/>
<path d="M230 40 c-9 -6 -10 -10 -3 -10 6 0 15 5 18 10 8 12 4 12 -15 0z"/>
<path d="M375 33 c-5 -14 -3 -15 6 -6 6 6 19 9 28 6 14 -4 14 -3 1 6 -21 15 -27 14 -35 -6z"/>
</g>
</g>
  <g id="id3:id3" transform="matrix(1.25,0,0,1.25,0.0,0.0)"><g transform="translate(0.000000,25.600000) scale(0.040000,-0.040000)" fill="#c0dfd0" stroke="none">
<path d="M335 610 c-3 -6 1 -7 9 -4 18 7 21 14 7 14 -6 0 -13 -4 -16 -10z"/>
<path d="M311 598 c-1 -12 -9 -18 -23 -18 -12 0 -19 -3 -15 -6 9 -9 97 -11 97 -2 0 7 -14 10 -37 7 -4 0 -10 8 -14 18 -7 17 -8 17 -8 1z"/>
<path d="M455 541 c-3 -5 -2 -12 3 -15 5 -3 9 1 9 9 0 17 -3 19 -12 6z"/>
<path d="M520 483 c5 -2 8 -9 5 -13 -3 -5 -1 -11 4 -14 5 -4 8 2 7 11 -2 9 -8 18 -15 19 -6 1 -7 0 -1 -3z"/>
<path d="M561 474 c0 -11 3 -14 6 -6 3 7 2 16 -1 19 -3 4 -6 -2 -5 -13z"/>
<path d="M451 434 c0 -11 3 -14 6 -6 3 7 2 16 -1 19 -3 4 -6 -2 -5 -13z"/>
<path d="M220 406 c0 -2 14 -6 30 -8 17 -3 30 -1 30 4 0 4 -13 8 -30 8 -16 0 -30 -2 -30 -4z"/>
<path d="M368 403 c12 -2 32 -2 45 0 12 2 2 4 -23 4 -25 0 -35 -2 -22 -4z"/>
<path d="M342 350 c0 -14 2 -19 5 -12 2 6 2 18 0 25 -3 6 -5 1 -5 -13z"/>
<path d="M248 343 c7 -3 16 -2 19 1 4 3 -2 6 -13 5 -11 0 -14 -3 -6 -6z"/>
<path d="M388 343 c7 -3 16 -2 19 1 4 3 -2 6 -13 5 -11 0 -14 -3 -6 -6z"/>
<path d="M60 321 c0 -5 -9 -11 -20 -14 -11 -3 -20 -11 -20 -19 0 -10 2 -10 9 1 5 8 16 11 25 8 11 -5 16 -1 16 13 0 11 -2 20 -5 20 -3 0 -5 -4 -5 -9z"/>
<path d="M157 323 c-10 -9 -9 -23 1 -23 5 0 9 7 9 15 0 17 -1 18 -10 8z"/>
<path d="M470 326 c0 -2 8 -10 18 -17 15 -13 16 -12 3 4 -13 16 -21 21 -21 13z"/>
<path d="M588 303 c6 -2 18 -2 25 0 6 3 1 5 -13 5 -14 0 -19 -2 -12 -5z"/>
<path d="M101 163 c6 -7 17 -13 23 -12 7 0 6 2 -2 6 -6 2 -10 8 -8 12 3 4 -1 8 -9 8 -11 0 -12 -4 -4 -14z"/>
<path d="M150 121 c0 -6 4 -13 10 -16 6 -3 7 1 4 9 -7 18 -14 21 -14 7z"/>
<path d="M303 41 c0 -11 5 -18 9 -15 4 3 5 11 1 19 -7 21 -12 19 -10 -4z"/>
<path d="M331 34 c0 -11 3 -14 6 -6 3 7 2 16 -1 19 -3 4 -6 -2 -5 -13z"/>
</g>
</g>
  <g id="id4:id4" transform="matrix(1.25,0,0,1.25,0.0,0.0)"><g transform="translate(0.000000,25.600000) scale(0.040000,-0.040000)" fill="#abd4c0" stroke="none">
<path d="M129 543 c-13 -16 -12 -17 4 -4 9 7 17 15 17 17 0 8 -8 3 -21 -13z"/>
<path d="M89 503 c-13 -16 -12 -17 4 -4 9 7 17 15 17 17 0 8 -8 3 -21 -13z"/>
<path d="M253 473 c37 -2 97 -2 135 0 37 2 6 3 -68 3 -74 0 -105 -1 -67 -3z"/>
<path d="M203 405 c0 -11 11 -15 36 -14 28 1 30 3 11 6 -14 3 -30 9 -36 14 -7 5 -11 3 -11 -6z"/>
<path d="M366 392 c-2 -4 13 -6 35 -4 21 2 39 6 39 8 0 7 -69 4 -74 -4z"/>
<path d="M575 372 c-14 -10 -13 -109 1 -109 6 0 9 15 7 38 -3 30 -1 37 13 35 9 0 19 6 21 14 4 12 3 13 -5 1 -12 -17 -35 -4 -28 15 6 16 5 17 -9 6z"/>
<path d="M60 356 c0 -8 -8 -17 -17 -19 -14 -4 -13 -5 3 -6 23 -1 40 24 24 34 -6 4 -10 -1 -10 -9z"/>
<path d="M215 340 c-3 -6 1 -7 9 -4 18 7 21 14 7 14 -6 0 -13 -4 -16 -10z"/>
<path d="M560 220 c-8 -5 -12 -12 -9 -15 4 -3 12 1 19 10 14 17 11 19 -10 5z"/>
<path d="M120 111 c0 -6 4 -13 10 -16 6 -3 7 1 4 9 -7 18 -14 21 -14 7z"/>
<path d="M173 105 c0 -8 4 -12 9 -9 5 3 6 10 3 15 -9 13 -12 11 -12 -6z"/>
<path d="M290 63 c0 -5 14 -8 30 -8 17 0 30 3 30 8 0 4 -13 7 -30 7 -16 0 -30 -3 -30 -7z"/>
<path d="M290 30 c-9 -6 -10 -10 -3 -10 6 0 15 5 18 10 8 12 4 12 -15 0z"/>
</g>
</g>
  <g id="id5:id5" transform="matrix(1.25,0,0,1.25,0.0,0.0)"><g transform="translate(0.000000,25.600000) scale(0.040000,-0.040000)" fill="#f8e29c" stroke="none">
<path d="M462 174 l-23 -24 27 -28 27 -27 -16 27 c-22 35 -22 35 13 35 30 0 39 -10 20 -22 -5 -3 -10 -14 -9 -23 0 -13 3 -12 11 6 6 12 15 22 20 22 5 0 0 14 -12 30 -25 36 -28 36 -58 4z"/>
<path d="M570 151 c0 -41 -30 -72 -76 -81 l-39 -8 33 -1 c44 -1 92 44 92 88 0 17 -2 31 -5 31 -3 0 -5 -13 -5 -29z"/>
</g>
</g>
  <g id="id6:id6" transform="matrix(1.25,0,0,1.25,0.0,0.0)"><g transform="translate(0.000000,25.600000) scale(0.040000,-0.040000)" fill="#96c9b0" stroke="none">
<path d="M400 593 c0 -6 8 -17 18 -24 16 -13 16 -13 2 6 -8 11 -16 22 -17 24 -2 2 -3 0 -3 -6z"/>
<path d="M308 563 c6 -2 18 -2 25 0 6 3 1 5 -13 5 -14 0 -19 -2 -12 -5z"/>
<path d="M490 556 c0 -2 8 -10 18 -17 15 -13 16 -12 3 4 -13 16 -21 21 -21 13z"/>
<path d="M485 500 c10 -11 20 -20 23 -20 3 0 -3 9 -13 20 -10 11 -20 20 -23 20 -3 0 3 -9 13 -20z"/>
<path d="M262 453 c32 -2 84 -2 115 0 32 2 6 3 -57 3 -63 0 -89 -1 -58 -3z"/>
<path d="M462 435 c0 -16 2 -22 5 -12 2 9 2 23 0 30 -3 6 -5 -1 -5 -18z"/>
<path d="M560 436 c0 -8 4 -17 9 -20 5 -4 7 3 4 14 -6 23 -13 26 -13 6z"/>
<path d="M210 340 c8 -5 20 -10 25 -10 6 0 3 5 -5 10 -8 5 -19 10 -25 10 -5 0 -3 -5 5 -10z"/>
<path d="M415 340 c-3 -6 1 -7 9 -4 18 7 21 14 7 14 -6 0 -13 -4 -16 -10z"/>
<path d="M470 336 c0 -2 8 -10 18 -17 15 -13 16 -12 3 4 -13 16 -21 21 -21 13z"/>
<path d="M64 222 c4 -3 14 -7 22 -8 9 -1 13 0 10 4 -4 3 -14 7 -22 8 -9 1 -13 0 -10 -4z"/>
<path d="M80 146 c0 -2 8 -10 18 -17 15 -13 16 -12 3 4 -13 16 -21 21 -21 13z"/>
<path d="M416 91 c-4 -5 -2 -12 3 -15 5 -4 12 -2 15 3 4 5 2 12 -3 15 -5 4 -12 2 -15 -3z"/>
<path d="M215 81 c-3 -5 -2 -12 3 -15 5 -3 9 1 9 9 0 17 -3 19 -12 6z"/>
<path d="M270 70 c0 -5 5 -10 11 -10 5 0 7 5 4 10 -3 6 -8 10 -11 10 -2 0 -4 -4 -4 -10z"/>
<path d="M350 58 c-12 -22 -12 -22 6 -6 10 10 15 20 12 24 -4 3 -12 -5 -18 -18z"/>
</g>
</g>
  <g id="id7:id7" transform="matrix(1.25,0,0,1.25,0.0,0.0)"><g transform="translate(0.000000,25.600000) scale(0.040000,-0.040000)" fill="#7ebd9e" stroke="none">
<path d="M266 601 c-4 -5 3 -7 14 -4 23 6 26 13 6 13 -8 0 -17 -4 -20 -9z"/>
<path d="M345 600 c-3 -6 1 -7 9 -4 18 7 21 14 7 14 -6 0 -13 -4 -16 -10z"/>
<path d="M215 591 c-3 -5 -2 -12 3 -15 5 -3 9 1 9 9 0 17 -3 19 -12 6z"/>
<path d="M470 551 c0 -6 4 -13 10 -16 6 -3 7 1 4 9 -7 18 -14 21 -14 7z"/>
<path d="M172 435 c0 -16 2 -22 5 -12 2 9 2 23 0 30 -3 6 -5 -1 -5 -18z"/>
<path d="M64 431 c0 -11 4 -17 8 -15 10 7 10 34 0 34 -4 0 -8 -9 -8 -19z"/>
<path d="M253 413 c9 -2 23 -2 30 0 6 3 -1 5 -18 5 -16 0 -22 -2 -12 -5z"/>
<path d="M368 413 c12 -2 32 -2 45 0 12 2 2 4 -23 4 -25 0 -35 -2 -22 -4z"/>
<path d="M71 324 c0 -11 3 -14 6 -6 3 7 2 16 -1 19 -3 4 -6 -2 -5 -13z"/>
<path d="M367 333 c-4 -3 -7 -11 -7 -17 0 -7 3 -7 8 0 4 7 16 14 27 17 19 5 19 5 -1 6 -11 0 -24 -2 -27 -6z"/>
<path d="M35 289 c-4 -6 -5 -12 -2 -15 2 -3 7 2 10 11 7 17 1 20 -8 4z"/>
<path d="M363 185 c0 -27 2 -38 4 -22 2 15 2 37 0 50 -2 12 -4 0 -4 -28z"/>
<path d="M569 216 c0 -1 -2 -9 -4 -19 -3 -18 -3 -18 16 -1 10 9 19 18 19 19 0 2 -29 3 -31 1z"/>
<path d="M81 167 c2 -1 13 -9 24 -17 19 -14 19 -14 6 3 -7 9 -18 17 -24 17 -6 0 -8 -1 -6 -3z"/>
<path d="M140 145 c13 -14 26 -25 28 -25 3 0 -5 11 -18 25 -13 14 -26 25 -28 25 -3 0 5 -11 18 -25z"/>
<path d="M288 73 c7 -3 16 -2 19 1 4 3 -2 6 -13 5 -11 0 -14 -3 -6 -6z"/>
<path d="M338 73 c7 -3 16 -2 19 1 4 3 -2 6 -13 5 -11 0 -14 -3 -6 -6z"/>
<path d="M429 78 c-5 -18 -6 -38 -1 -34 7 8 12 36 6 36 -2 0 -4 -1 -5 -2z"/>
<path d="M363 45 c0 -8 4 -12 9 -9 5 3 6 10 3 15 -9 13 -12 11 -12 -6z"/>
<path d="M278 33 c7 -3 16 -2 19 1 4 3 -2 6 -13 5 -11 0 -14 -3 -6 -6z"/>
</g>
</g>
  <g id="id8:id8" transform="matrix(1.25,0,0,1.25,0.0,0.0)"><g transform="translate(0.000000,25.600000) scale(0.040000,-0.040000)" fill="#61ae89" stroke="none">
<path d="M280 590 c-9 -6 -10 -10 -3 -10 6 0 15 5 18 10 8 12 4 12 -15 0z"/>
<path d="M360 590 c-9 -6 -10 -10 -3 -10 6 0 15 5 18 10 8 12 4 12 -15 0z"/>
<path d="M210 580 c-9 -6 -10 -10 -3 -10 6 0 15 5 18 10 8 12 4 12 -15 0z"/>
<path d="M418 578 c5 -5 16 -8 23 -6 8 3 3 7 -10 11 -17 4 -21 3 -13 -5z"/>
<path d="M141 546 c-10 -12 -9 -14 5 -12 10 2 20 8 22 14 5 17 -13 15 -27 -2z"/>
<path d="M235 550 c-3 -6 1 -7 9 -4 18 7 21 14 7 14 -6 0 -13 -4 -16 -10z"/>
<path d="M92 498 c-15 -15 -16 -31 0 -26 6 2 12 12 14 21 3 20 2 21 -14 5z"/>
<path d="M570 430 c0 -5 5 -10 11 -10 5 0 7 5 4 10 -3 6 -8 10 -11 10 -2 0 -4 -4 -4 -10z"/>
<path d="M303 345 c0 -33 2 -45 4 -27 2 18 2 45 0 60 -2 15 -4 0 -4 -33z"/>
<path d="M198 383 c12 -2 32 -2 45 0 12 2 2 4 -23 4 -25 0 -35 -2 -22 -4z"/>
<path d="M331 374 c0 -11 3 -14 6 -6 3 7 2 16 -1 19 -3 4 -6 -2 -5 -13z"/>
<path d="M388 383 c12 -2 30 -2 40 0 9 3 -1 5 -23 4 -22 0 -30 -2 -17 -4z"/>
<path d="M266 327 c3 -10 9 -15 12 -12 3 3 0 11 -7 18 -10 9 -11 8 -5 -6z"/>
<path d="M561 314 c0 -11 3 -14 6 -6 3 7 2 16 -1 19 -3 4 -6 -2 -5 -13z"/>
<path d="M363 300 c2 -8 14 -16 28 -17 19 -1 20 -1 4 4 -11 3 -24 10 -28 17 -6 7 -7 6 -4 -4z"/>
<path d="M46 273 c-6 -14 -5 -15 5 -6 7 7 10 15 7 18 -3 3 -9 -2 -12 -12z"/>
<path d="M590 280 c0 -5 5 -10 10 -10 6 0 10 5 10 10 0 6 -4 10 -10 10 -5 0 -10 -4 -10 -10z"/>
<path d="M304 247 c-9 -26 0 -100 14 -103 7 -1 8 0 2 3 -13 6 -13 103 -1 103 6 0 12 -19 14 -42 l4 -43 -1 44 c-1 44 -20 67 -32 38z"/>
<path d="M365 249 c-4 -6 -4 -13 -1 -16 3 -4 6 -1 6 5 0 6 8 13 18 15 15 4 15 5 0 6 -9 0 -20 -4 -23 -10z"/>
<path d="M546 233 c-6 -14 -5 -15 5 -6 7 7 10 15 7 18 -3 3 -9 -2 -12 -12z"/>
<path d="M273 190 c0 -30 2 -43 4 -27 2 15 2 39 0 55 -2 15 -4 2 -4 -28z"/>
<path d="M571 208 c-14 -23 -14 -23 8 -4 22 20 25 26 13 26 -4 0 -13 -10 -21 -22z"/>
<path d="M303 113 c9 -2 25 -2 35 0 9 3 1 5 -18 5 -19 0 -27 -2 -17 -5z"/>
<path d="M144 98 c3 -15 26 -23 26 -8 0 6 -4 9 -9 6 -5 -4 -12 -1 -14 4 -3 6 -4 5 -3 -2z"/>
<path d="M426 64 c-11 -7 -18 -16 -15 -18 2 -2 13 2 23 10 11 7 18 16 15 18 -2 2 -13 -2 -23 -10z"/>
<path d="M200 66 c0 -2 7 -9 15 -16 13 -11 14 -10 9 4 -5 14 -24 23 -24 12z"/>
<path d="M350 39 c0 -5 5 -7 10 -4 6 3 10 8 10 11 0 2 -4 4 -10 4 -5 0 -10 -5 -10 -11z"/>
</g>
</g>
  <g id="id9:id9" transform="matrix(1.25,0,0,1.25,0.0,0.0)"><g transform="translate(0.000000,25.600000) scale(0.040000,-0.040000)" fill="#f3ce5a" stroke="none">
<path d="M508 189 c6 -7 12 -16 12 -20 0 -14 -32 -19 -53 -8 -20 9 -21 9 -4 -5 10 -8 18 -18 18 -23 -1 -4 5 -8 12 -8 6 0 11 6 10 13 -3 11 10 16 30 13 11 -2 -11 36 -26 45 -9 5 -9 4 1 -7z"/>
<path d="M562 150 c0 -19 2 -27 5 -17 2 9 2 25 0 35 -3 9 -5 1 -5 -18z"/>
<path d="M516 123 c-6 -14 -5 -15 5 -6 7 7 10 15 7 18 -3 3 -9 -2 -12 -12z"/>
<path d="M472 104 c10 -10 20 -16 22 -13 3 3 -5 11 -17 18 -21 13 -21 12 -5 -5z"/>
<path d="M539 93 c-13 -16 -12 -17 4 -4 16 13 21 21 13 21 -2 0 -10 -8 -17 -17z"/>
<path d="M473 73 c9 -2 25 -2 35 0 9 3 1 5 -18 5 -19 0 -27 -2 -17 -5z"/>
</g>
</g>
  <g id="id10:id10" transform="matrix(1.25,0,0,1.25,0.0,0.0)"><g transform="translate(0.000000,25.600000) scale(0.040000,-0.040000)" fill="#c3b020" stroke="none">
<path d="M436 201 c-12 -14 -16 -31 -13 -62 l4 -44 1 46 c2 56 13 66 72 72 l45 4 -46 1 c-34 2 -50 -3 -63 -17z"/>
</g>
</g>
  <g id="id11:id11" transform="matrix(1.25,0,0,1.25,0.0,0.0)"><g transform="translate(0.000000,25.600000) scale(0.040000,-0.040000)" fill="#f4bb16" stroke="none">
<path d="M442 198 c-7 -7 -12 -31 -12 -55 0 -47 17 -63 68 -63 35 0 62 27 62 64 0 49 -16 66 -63 66 -24 0 -48 -5 -55 -12z m84 -24 c16 -24 16 -27 -3 -51 -27 -38 -38 -38 -63 -3 l-22 31 23 25 c29 31 44 30 65 -2z"/>
</g>
</g>
  <g id="id12:id12" transform="matrix(1.25,0,0,1.25,0.0,0.0)"><g transform="translate(0.000000,25.600000) scale(0.040000,-0.040000)" fill="#449f73" stroke="none">
<path d="M288 553 c17 -2 47 -2 65 0 17 2 3 4 -33 4 -36 0 -50 -2 -32 -4z"/>
<path d="M485 540 c3 -5 11 -10 16 -10 6 0 7 5 4 10 -3 6 -11 10 -16 10 -6 0 -7 -4 -4 -10z"/>
<path d="M144 488 l-19 -23 23 19 c21 18 27 26 19 26 -2 0 -12 -10 -23 -22z"/>
<path d="M490 485 c13 -14 26 -25 28 -25 3 0 -5 11 -18 25 -13 14 -26 25 -28 25 -3 0 5 -11 18 -25z"/>
<path d="M535 490 c3 -5 11 -10 16 -10 6 0 7 5 4 10 -3 6 -11 10 -16 10 -6 0 -7 -4 -4 -10z"/>
<path d="M177 483 c-3 -5 41 -7 96 -5 184 4 204 8 55 10 -81 1 -149 -1 -151 -5z"/>
<path d="M472 445 c0 -16 2 -22 5 -12 2 9 2 23 0 30 -3 6 -5 -1 -5 -18z"/>
<path d="M207 443 c-3 -5 48 -8 113 -8 65 0 116 3 113 8 -2 4 -53 7 -113 7 -60 0 -111 -3 -113 -7z"/>
<path d="M96 413 c-6 -14 -5 -15 5 -6 7 7 10 15 7 18 -3 3 -9 -2 -12 -12z"/>
<path d="M243 423 c9 -2 23 -2 30 0 6 3 -1 5 -18 5 -16 0 -22 -2 -12 -5z"/>
<path d="M373 423 c9 -2 23 -2 30 0 6 3 -1 5 -18 5 -16 0 -22 -2 -12 -5z"/>
<path d="M552 365 c0 -16 2 -22 5 -12 2 9 2 23 0 30 -3 6 -5 -1 -5 -18z"/>
<path d="M83 320 c0 -36 2 -50 4 -32 2 17 2 47 0 65 -2 17 -4 3 -4 -33z"/>
<path d="M40 359 c0 -5 5 -7 10 -4 6 3 10 8 10 11 0 2 -4 4 -10 4 -5 0 -10 -5 -10 -11z"/>
<path d="M378 363 c6 -2 18 -2 25 0 6 3 1 5 -13 5 -14 0 -19 -2 -12 -5z"/>
<path d="M331 344 c0 -11 3 -14 6 -6 3 7 2 16 -1 19 -3 4 -6 -2 -5 -13z"/>
<path d="M145 330 c-10 -11 -16 -22 -14 -24 2 -2 12 7 22 20 22 29 17 32 -8 4z"/>
<path d="M485 332 c17 -20 17 -26 5 -45 -12 -20 -12 -21 3 -8 23 18 21 34 -5 57 l-23 19 20 -23z"/>
<path d="M388 323 c7 -3 16 -2 19 1 4 3 -2 6 -13 5 -11 0 -14 -3 -6 -6z"/>
<path d="M186 311 c-4 -5 3 -7 14 -4 23 6 26 13 6 13 -8 0 -17 -4 -20 -9z"/>
<path d="M420 316 c0 -2 9 -6 20 -9 11 -3 20 -1 20 4 0 5 -9 9 -20 9 -11 0 -20 -2 -20 -4z"/>
<path d="M262 294 c-7 -8 -8 -14 -3 -14 10 0 25 19 20 25 -2 1 -10 -3 -17 -11z"/>
<path d="M322 294 c-7 -8 -8 -14 -3 -14 10 0 25 19 20 25 -2 1 -10 -3 -17 -11z"/>
<path d="M552 275 c0 -16 2 -22 5 -12 2 9 2 23 0 30 -3 6 -5 -1 -5 -18z"/>
<path d="M425 260 l-30 -8 27 -1 c15 0 30 4 33 9 3 6 5 9 3 9 -2 -1 -16 -5 -33 -9z"/>
<path d="M208 253 c6 -2 18 -2 25 0 6 3 1 5 -13 5 -14 0 -19 -2 -12 -5z"/>
<path d="M250 256 c0 -2 7 -7 16 -10 8 -3 12 -2 9 4 -6 10 -25 14 -25 6z"/>
<path d="M96 147 c3 -10 9 -15 12 -12 3 3 0 11 -7 18 -10 9 -11 8 -5 -6z"/>
<path d="M270 131 c0 -6 4 -13 10 -16 6 -3 7 1 4 9 -7 18 -14 21 -14 7z"/>
<path d="M283 83 c20 -2 54 -2 75 0 20 2 3 4 -38 4 -41 0 -58 -2 -37 -4z"/>
</g>
</g>
  <g id="id13:id13" transform="matrix(1.25,0,0,1.25,0.0,0.0)"><g transform="translate(0.000000,25.600000) scale(0.040000,-0.040000)" fill="#218d58" stroke="none">
<path d="M235 537 c-4 -10 -14 -16 -21 -13 -7 3 -16 1 -19 -4 -7 -12 -13 -11 133 -12 62 0 116 3 119 6 4 3 -4 6 -16 6 -12 0 -20 4 -17 9 3 5 -1 11 -9 15 -8 3 -15 1 -15 -4 0 -15 -137 -13 -143 3 -3 8 -7 6 -12 -6z"/>
<path d="M169 505 c-1 -3 -2 -11 -3 -17 -1 -7 -8 -12 -15 -10 -8 2 -11 -3 -8 -13 4 -9 1 -15 -9 -15 -9 0 -12 -5 -8 -11 4 -7 -4 -20 -17 -30 -13 -10 -19 -19 -12 -19 13 0 14 -140 1 -140 -4 0 -5 -7 -2 -15 3 -8 11 -13 16 -12 6 1 13 -4 15 -10 3 -7 0 -13 -7 -13 -6 0 -8 -5 -5 -10 4 -6 11 -8 16 -5 5 4 9 -3 9 -13 0 -11 8 -26 18 -33 14 -11 15 -11 5 1 -21 23 -15 35 7 15 11 -10 17 -21 15 -26 -3 -4 -1 -10 5 -14 5 -3 10 -1 10 5 0 7 6 10 13 7 6 -2 12 -9 12 -14 0 -6 3 -15 8 -19 4 -4 7 -2 7 4 0 7 10 13 23 13 16 1 18 2 5 6 -14 4 -18 15 -18 58 0 51 -1 54 -27 57 -16 2 -27 8 -26 15 1 6 -4 14 -12 17 -8 3 -15 1 -15 -5 0 -6 -5 -7 -10 -4 -6 4 -8 10 -5 15 3 5 -5 16 -17 24 l-22 16 22 16 c12 8 22 22 22 30 0 8 9 14 21 14 11 0 17 -4 14 -10 -4 -7 2 -7 19 0 14 5 34 7 43 3 10 -3 15 -2 10 2 -4 5 -26 11 -50 14 l-42 6 0 63 c0 54 -2 74 -6 57z"/>
<path d="M477 468 c3 -21 2 -49 -1 -62 -5 -22 -12 -25 -58 -28 l-53 -3 42 -11 c23 -6 40 -7 37 -3 -3 5 4 9 15 9 12 0 21 -6 21 -14 0 -8 12 -23 27 -34 l27 -19 -22 -12 c-12 -6 -22 -18 -22 -26 0 -8 -5 -15 -11 -15 -5 0 -7 5 -3 11 4 7 1 10 -7 7 -8 -3 -13 -13 -11 -23 3 -15 -3 -17 -42 -14 l-45 4 -3 -63 c-3 -61 -2 -62 22 -62 24 0 26 3 22 34 -3 28 2 40 23 62 22 22 33 26 66 21 22 -3 42 -1 46 5 3 7 1 8 -5 4 -8 -4 -12 0 -12 11 0 31 12 63 21 57 5 -3 9 5 9 18 0 16 -3 19 -9 10 -7 -11 -10 -10 -15 3 -10 26 -7 67 4 60 6 -3 7 1 4 9 -3 9 -11 14 -16 13 -6 -1 -13 4 -15 11 -3 6 0 12 7 12 6 0 9 4 5 10 -3 5 -13 6 -22 3 -13 -5 -15 -2 -10 11 4 9 3 14 -2 11 -5 -3 -12 3 -15 12 -2 10 -2 1 1 -19z"/>
<path d="M220 430 c-11 -7 -6 -8 16 -4 17 3 41 1 52 -5 15 -8 22 -8 26 2 5 9 7 9 12 0 4 -10 11 -10 26 -2 11 6 35 8 52 5 22 -4 27 -3 16 4 -8 5 -53 10 -100 10 -47 0 -92 -5 -100 -10z"/>
<path d="M232 319 c-19 -7 -23 -29 -6 -29 3 0 2 5 -1 10 -3 6 3 10 14 10 12 0 21 5 21 10 0 6 -1 10 -2 9 -2 0 -13 -4 -26 -10z"/>
<path d="M370 319 c0 -5 12 -9 26 -9 16 0 23 -4 18 -12 -4 -7 -3 -8 5 -4 6 4 9 11 6 15 -7 12 -55 20 -55 10z"/>
</g>
</g>
  <g id="id14:id14" transform="matrix(1.25,0,0,1.25,0.0,0.0)"><g transform="translate(0.000000,25.600000) scale(0.040000,-0.040000)" fill="#0c8148" stroke="none">
<path d="M250 540 c0 -6 30 -10 70 -10 40 0 70 4 70 10 0 6 -30 10 -70 10 -40 0 -70 -4 -70 -10z"/>
<path d="M418 523 c7 -3 16 -2 19 1 4 3 -2 6 -13 5 -11 0 -14 -3 -6 -6z"/>
<path d="M167 495 c-9 -7 -17 -16 -17 -21 0 -4 5 -3 12 4 8 8 58 12 160 12 83 0 148 4 148 9 0 15 -282 11 -303 -4z"/>
<path d="M480 483 c0 -15 19 -37 26 -31 3 4 -1 14 -10 23 -9 9 -16 13 -16 8z"/>
<path d="M130 460 c0 -5 5 -10 11 -10 5 0 7 5 4 10 -3 6 -8 10 -11 10 -2 0 -4 -4 -4 -10z"/>
<path d="M110 424 c0 -8 5 -12 10 -9 6 3 10 10 10 16 0 5 -4 9 -10 9 -5 0 -10 -7 -10 -16z"/>
<path d="M510 431 c0 -6 5 -13 10 -16 6 -3 10 1 10 9 0 9 -4 16 -10 16 -5 0 -10 -4 -10 -9z"/>
<path d="M310 360 c0 -40 4 -70 10 -70 6 0 10 30 10 70 0 40 -4 70 -10 70 -6 0 -10 -30 -10 -70z"/>
<path d="M530 373 c0 -15 5 -35 10 -43 7 -11 10 -6 10 22 0 20 -4 40 -10 43 -6 4 -10 -6 -10 -22z"/>
<path d="M90 320 c0 -38 4 -70 8 -70 4 0 8 32 9 70 1 39 -3 70 -8 70 -5 0 -9 -31 -9 -70z"/>
<path d="M160 360 c0 -5 6 -10 14 -10 8 0 18 5 21 10 3 6 -3 10 -14 10 -12 0 -21 -4 -21 -10z"/>
<path d="M445 360 c3 -5 13 -10 21 -10 8 0 14 5 14 10 0 6 -9 10 -21 10 -11 0 -17 -4 -14 -10z"/>
<path d="M260 320 c0 -5 -9 -10 -21 -10 -11 0 -17 -4 -14 -10 12 -19 45 -11 45 10 0 11 -2 20 -5 20 -3 0 -5 -4 -5 -10z"/>
<path d="M510 304 c0 -8 5 -12 10 -9 6 4 8 11 5 16 -9 14 -15 11 -15 -7z"/>
<path d="M370 300 c0 -5 9 -10 19 -10 11 0 23 5 26 10 4 6 -5 10 -19 10 -14 0 -26 -4 -26 -10z"/>
<path d="M538 290 c-12 -38 -10 -66 3 -53 6 6 9 26 7 44 -3 32 -3 33 -10 9z"/>
<path d="M155 260 c3 -5 8 -10 11 -10 2 0 4 5 4 10 0 6 -5 10 -11 10 -5 0 -7 -4 -4 -10z"/>
<path d="M475 260 c-3 -5 -1 -10 4 -10 6 0 11 5 11 10 0 6 -2 10 -4 10 -3 0 -8 -4 -11 -10z"/>
<path d="M195 240 c3 -5 17 -10 31 -10 23 0 24 -3 24 -55 0 -30 5 -55 10 -55 6 0 10 28 10 65 l0 65 -41 0 c-24 0 -38 -4 -34 -10z"/>
<path d="M310 200 c0 -27 5 -50 10 -50 6 0 10 23 10 50 0 28 -4 50 -10 50 -5 0 -10 -22 -10 -50z"/>
<path d="M375 240 c3 -5 24 -10 46 -10 21 0 39 5 39 10 0 6 -21 10 -46 10 -27 0 -43 -4 -39 -10z"/>
<path d="M110 216 c0 -9 5 -16 10 -16 6 0 10 4 10 9 0 6 -4 13 -10 16 -5 3 -10 -1 -10 -9z"/>
<path d="M150 163 c0 -13 29 -38 35 -31 3 3 -4 13 -15 23 -11 10 -20 13 -20 8z"/>
<path d="M200 120 c0 -5 7 -10 16 -10 8 0 12 5 9 10 -3 6 -10 10 -16 10 -5 0 -9 -4 -9 -10z"/>
<path d="M240 100 c0 -6 33 -10 79 -10 44 0 83 5 86 10 4 6 -25 10 -79 10 -51 0 -86 -4 -86 -10z"/>
</g>
</g>
  <g id="id15:id15" transform="matrix(1.25,0,0,1.25,0.0,0.0)"><g transform="translate(0.000000,25.600000) scale(0.040000,-0.040000)" fill="#719e3d" stroke="none">
<path d="M473 223 c9 -2 25 -2 35 0 9 3 1 5 -18 5 -19 0 -27 -2 -17 -5z"/>
<path d="M429 203 c-13 -16 -12 -17 4 -4 9 7 17 15 17 17 0 8 -8 3 -21 -13z"/>
<path d="M412 150 c0 -19 2 -27 5 -17 2 9 2 25 0 35 -3 9 -5 1 -5 -18z"/>
</g>
</g>
</svg>
